<svg width="109" height="70" viewBox="0 0 109 70" fill="none" xmlns="http://www.w3.org/2000/svg">
<path fill-rule="evenodd" clip-rule="evenodd" d="M12.5737 59.176C12.5737 58.3382 12.4307 57.5858 12.1448 56.9187C11.8585 56.2506 11.4488 55.6768 10.9152 55.1957C10.3818 54.7144 9.73207 54.3462 8.96649 54.0902C8.20104 53.8337 7.34644 53.7058 6.4028 53.7058H0V70.0001H2.8304V64.7628H6.06304C6.96352 64.7628 7.80692 64.6426 8.59916 64.4023C9.38781 64.1613 10.0763 63.8084 10.6677 63.3427C11.2555 62.8777 11.7196 62.2954 12.0633 61.5969C12.4035 60.8986 12.5737 60.0916 12.5737 59.176ZM9.67422 59.2341C9.67422 60.1229 9.36114 60.8369 8.73045 61.3717C8.1039 61.9116 7.24581 62.1792 6.15967 62.1792H2.8304V56.29H6.15967C7.23073 56.29 8.08534 56.5343 8.71899 57.0273C9.35714 57.5156 9.67422 58.2529 9.67422 59.2341ZM19.287 60.4794V70.0001H31.4203V67.416H22.1175V63.0635H30.2602V60.4794H26.711H22.1175H19.287ZM49.9418 64.9724L41.2616 53.7058H38.6209V70.0001H41.4513V58.4079L50.3867 70.0001H52.772V53.7058H49.9418V64.9724ZM69.1362 53.5898H66.491L59.3468 70.0001H62.2689L63.94 66.0667H71.6189L73.2655 70.0001H76.2817L69.1362 53.5898ZM70.574 63.5291H64.9836L67.7679 57.0116L70.574 63.5291ZM83.0176 53.7058V70.0001H85.8482V53.7058H83.0176ZM108.684 61.8298C108.684 60.6814 108.475 59.6108 108.058 58.6174C107.641 57.6242 107.049 56.7632 106.284 56.0334C105.519 55.3043 104.605 54.734 103.546 54.323C102.487 53.9119 101.322 53.7058 100.054 53.7058H94.0001V70.0001H100.054C101.322 70.0001 102.487 69.7905 103.546 69.3714C104.605 68.9523 105.519 68.3785 106.284 67.6494C107.049 66.9196 107.641 66.0551 108.058 65.0537C108.475 64.0527 108.684 62.9781 108.684 61.8298ZM105.692 61.8763C105.692 62.6873 105.557 63.4322 105.285 64.1073C105.016 64.786 104.632 65.3719 104.145 65.8607C103.658 66.353 103.063 66.7338 102.367 67.0091C101.667 67.2807 100.893 67.416 100.04 67.416H96.8307V56.29H100.04C100.893 56.29 101.667 56.4294 102.367 56.7086C103.063 56.9919 103.658 57.3802 104.145 57.8801C104.632 58.3771 105.016 58.9665 105.285 59.6457C105.557 60.3203 105.692 61.0657 105.692 61.8763Z" fill="#58585B"/>
<path fill-rule="evenodd" clip-rule="evenodd" d="M19.287 56.2899H31.304V53.7057H19.287V56.2899Z" fill="#FFA500"/>
<path fill-rule="evenodd" clip-rule="evenodd" d="M48.9394 10.1704C46.3993 11.9725 45.1898 14.7146 44.9825 17.8263C47.7677 16.9485 50.8367 16.4999 53.8994 16.487C57.297 16.4715 60.6997 16.9899 63.7146 18.0422C63.5497 14.8412 62.3424 12.0126 59.7437 10.1691C59.5079 10.5194 59.2399 10.8478 58.9423 11.1464L58.9448 11.149C57.7672 12.3306 56.14 13.0624 54.3426 13.0624C53.5979 13.0624 52.8725 12.9305 52.1921 12.6913C51.4955 12.4457 50.8493 12.0824 50.2796 11.6235H50.2735C49.7698 11.2188 49.3233 10.7315 48.9534 10.1833H48.9479L48.9394 10.1704ZM45.1027 21.0764C45.15 21.4358 45.207 21.7965 45.2749 22.1584C45.8184 25.0685 46.9992 28.0562 48.6152 30.7775C50.1779 33.4109 52.1478 35.7935 54.3426 37.6176C56.5368 35.7935 58.5068 33.4109 60.0696 30.7775C61.6853 28.0549 62.8668 25.0685 63.4105 22.1584C63.4633 21.8753 63.5084 21.5935 63.5497 21.313C63.4376 21.269 63.3268 21.225 63.2134 21.1824C60.4033 20.1158 57.1591 19.591 53.9123 19.6052C50.8493 19.6194 47.7928 20.1107 45.1027 21.0764ZM42.2149 22.7324L42.1595 22.4222C38.9711 24.2502 36.7652 26.9741 36.5479 30.5771C38.2389 30.643 39.7689 31.3605 40.8932 32.4879L40.8963 32.4853C42.0739 33.6669 42.8028 35.2997 42.8028 37.1035C42.8028 38.202 42.5325 39.2371 42.0548 40.1457C45.2059 41.7233 48.5845 41.2239 51.7024 39.4583C49.5055 37.4969 47.5362 35.0463 45.9457 32.3676C44.142 29.3296 42.8244 25.9903 42.2149 22.7324ZM41.8309 19.0687C41.7449 14.1832 43.5017 9.78126 47.8633 7.14138C47.8437 6.93712 47.8331 6.73286 47.8331 6.53118C47.8331 4.72903 48.5619 3.09494 49.74 1.91333H49.7455C50.9238 0.73172 52.5491 0 54.3426 0C56.1348 0 57.7608 0.73172 58.9397 1.91333L58.9448 1.9185C60.1225 3.10011 60.8517 4.73291 60.8517 6.53118C60.8517 6.73674 60.8427 6.941 60.8234 7.14267C65.2826 9.84331 67.0181 14.3849 66.8441 19.4048C71.3059 21.7874 74.3737 25.6102 74.4239 30.899C75.4005 31.2235 76.2767 31.7729 76.9904 32.4879L76.993 32.4853C78.1706 33.6669 78.8999 35.2997 78.8999 37.1035C78.8999 38.9064 78.1706 40.5396 76.993 41.7212L76.9904 41.7188C75.809 42.9024 74.1817 43.6347 72.3908 43.6347C71.5108 43.6347 70.6669 43.4559 69.8938 43.1332C69.5009 42.9692 69.1272 42.7666 68.7768 42.5313C63.98 45.3829 58.8469 44.484 54.3426 41.5031C49.8371 44.4846 44.7051 45.3829 39.9078 42.5313C38.8721 43.2277 37.6289 43.6347 36.2937 43.6347C34.5025 43.6347 32.8754 42.9024 31.6947 41.7188L31.6916 41.7212C30.514 40.5396 29.7847 38.9064 29.7847 37.1035C29.7847 35.2997 30.514 33.6669 31.6916 32.4853L31.6947 32.4879C32.1954 31.9862 32.7767 31.5648 33.4169 31.2468C33.3535 25.5352 36.8397 21.4746 41.8309 19.0687ZM56.9826 39.4583C60.1018 41.2248 63.4827 41.7243 66.6354 40.1431C66.4241 39.7412 66.254 39.3195 66.1304 38.8832C66.0518 38.6029 65.9886 38.309 65.9474 38.0039V37.9973C65.9049 37.6868 65.8817 37.3869 65.8817 37.1035C65.8817 35.2997 66.6109 33.6669 67.7886 32.4853L67.7911 32.4879C68.7252 31.5519 69.9389 30.8977 71.2918 30.6663C71.1449 27.2533 69.2625 24.6316 66.4563 22.8061C65.8418 26.0407 64.5289 29.3515 62.7392 32.3676C61.148 35.0463 59.1793 37.4969 56.9826 39.4583ZM56.7442 4.12659L56.7391 4.12013C56.1258 3.50993 55.2793 3.13114 54.3426 3.13114C53.4034 3.13114 52.5556 3.50993 51.9429 4.124L51.9459 4.12659C51.333 4.74196 50.9534 5.59262 50.9534 6.53118C50.9534 6.70959 50.965 6.87506 50.9877 7.02891C51.0118 7.19568 51.0486 7.35986 51.0959 7.51758C51.1936 7.84466 51.342 8.15364 51.5318 8.43417L51.5272 8.43676C51.717 8.71729 51.952 8.97197 52.2238 9.19045L52.2212 9.19304C52.5131 9.42704 52.8493 9.61449 53.2153 9.74377C53.5593 9.864 53.9381 9.93122 54.3426 9.93122C55.2793 9.93122 56.1258 9.54985 56.7391 8.93577H56.7442C57.3537 8.32428 57.7312 7.47363 57.7312 6.53118C57.7312 5.59132 57.3537 4.74067 56.7442 4.12659ZM38.6904 34.6921C38.0808 34.0819 37.2338 33.7031 36.2937 33.7031C35.354 33.7031 34.5065 34.0819 33.8975 34.6921V34.6985C33.2851 35.3139 32.9055 36.1645 32.9055 37.1035C32.9055 38.0428 33.2851 38.8932 33.8975 39.5078V39.5139C34.5065 40.125 35.354 40.5037 36.2937 40.5037C37.2338 40.5037 38.0808 40.125 38.6904 39.5139V39.5078C39.3029 38.8932 39.6824 38.0428 39.6824 37.1035C39.6824 36.1645 39.3029 35.3139 38.6904 34.6985V34.6921ZM74.7872 34.6921C74.1778 34.0819 73.3313 33.7031 72.3908 33.7031C71.4515 33.7031 70.6037 34.0819 69.9943 34.6921V34.6985C69.3823 35.3139 69.0022 36.1645 69.0022 37.1035C69.0022 37.2828 69.0126 37.4409 69.0306 37.5758C69.0512 37.7282 69.086 37.8838 69.1298 38.0388C69.2084 38.3211 69.3205 38.5843 69.4583 38.8215C69.6026 39.0675 69.7792 39.2962 69.9827 39.5018C70.2945 39.8169 70.6707 40.0719 71.0882 40.2467C71.485 40.4123 71.9244 40.5037 72.3908 40.5037C73.3313 40.5037 74.1778 40.125 74.7872 39.5139V39.5078C75.3992 38.8932 75.7793 38.0428 75.7793 37.1035C75.7793 36.1645 75.3992 35.3139 74.7872 34.6985V34.6921Z" fill="#FFA500"/>
</svg>
